Coordinates
version=1
nRows=5
nColumns=40
inDegrees=yes

Units are S.I. units (second, meters, Newtons, ...)
Angles are in degrees.

endheader
time	pelvis_tilt	pelvis_list	pelvis_rotation	pelvis_tx	pelvis_ty	pelvis_tz	hip_flexion_r	hip_adduction_r	hip_rotation_r	knee_angle_r	knee_angle_r_beta	ankle_angle_r	subtalar_angle_r	mtp_angle_r	hip_flexion_l	hip_adduction_l	hip_rotation_l	knee_angle_l	knee_angle_l_beta	ankle_angle_l	subtalar_angle_l	mtp_angle_l	lumbar_extension	lumbar_bending	lumbar_rotation	arm_flex_r	arm_add_r	arm_rot_r	elbow_flex_r	pro_sup_r	wrist_flex_r	wrist_dev_r	arm_flex_l	arm_add_l	arm_rot_l	elbow_flex_l	pro_sup_l	wrist_flex_l	wrist_dev_l
     14.29000000	     -4.61702353	     -5.30899603	     -5.21990264	      1.10471750	      0.93055576	      0.42262331	     22.49544397	      0.19115698	    -13.68731780	      9.99188946	      9.99188946	      1.22366268	      8.96749010	      6.81404796	      4.43953503	     -7.05392366	    -14.52543453	     16.08616009	     16.08616009	     16.41770990	     -7.35850890	     -3.14364080	    -10.12549398	      3.97768110	      0.63506884	    -12.10418604	    -13.40542086	     -2.13643592	     28.27040742	     46.55881154	      0.00000000	      0.00000000	     20.78656892	    -19.67075511	     -7.39233167	     63.91211623	     46.95507265	      0.00000000	      0.00000000
     14.30357143	     -4.63907644	     -5.27116820	     -5.32216428	      1.10595361	      0.92976310	      0.42485439	     22.02761736	      0.46313668	    -13.79844457	     10.29006774	     10.29006774	      1.35427145	      8.79207422	      6.53088934	      3.89103047	     -7.10504608	    -14.61646439	     15.96684181	     15.96684181	     16.70539061	     -7.33536432	     -3.19064953	     -9.86443231	      4.05980392	      0.63649540	    -11.90333219	    -13.44893284	     -2.22524306	     28.42293874	     46.55901735	      0.00000000	      0.00000000	     20.34368328	    -19.32919375	     -7.30818025	     63.84473570	     46.94639551	      0.00000000	      0.00000000
     14.31714286	     -4.55990741	     -5.24483302	     -5.35874038	      1.10740468	      0.92910729	      0.42711229	     21.46564222	      0.67341657	    -13.77033265	     10.80795930	     10.80795930	      1.56463649	      8.48925244	      6.06561411	      3.18763528	     -7.15894593	    -14.72632207	     15.77168031	     15.77168031	     16.99692735	     -7.20325636	     -3.19448003	     -9.68774755	      4.16183931	      0.61088734	    -11.58580159	    -13.52645517	     -2.33288141	     28.65133929	     46.55832024	      0.00000000	      0.00000000	     19.83920923	    -18.99510334	     -7.22745817	     63.70731746	     46.93640588	      0.00000000	      0.00000000
     14.33071429	     -4.32374131	     -5.07670653	     -5.39346831	      1.10915414	      0.92848538	      0.42958538	     20.73288714	      0.80928467	    -12.96789476	     11.21219763	     11.21219763	      0.19701034	      6.90401248	      0.56422717	      2.30231707	     -7.14692877	    -15.36881589	     15.66321459	     15.66321459	     17.87554317	     -5.95083186	     -2.29278827	     -9.68639162	      4.08541241	      0.31264737	    -11.35666904	    -13.52217247	     -3.61216323	     30.00990771	     46.55559555	      0.00000000	      0.00000000	     19.00552246	    -18.79913845	     -8.00143817	     63.92933179	     47.02942208	      0.00000000	      0.00000000
     14.34428571	     -4.17560094	     -5.00002230	     -5.36955524	      1.11078782	      0.92798990	      0.43194385	     20.28707990	      0.86858621	    -12.65091966	     12.10679031	     12.10679031	      0.61861693	      6.29620194	     -0.06244735	      1.57187706	     -7.15885480	    -15.41880863	     15.54455106	     15.54455106	     18.14503529	     -5.81080858	     -2.14333337	     -9.56994874	      4.15393811	      0.22795134	    -10.75147242	    -13.59371957	     -3.73542877	     30.27676999	     46.55142879	      0.00000000	      0.00000000	     18.41909547	    -18.48533416	     -7.83704111	     63.38946771	     47.01029193	      0.00000000	      0.00000000
